<?xml version="1.0" encoding="utf-8"?>
<!-- Generator: Adobe Illustrator 23.0.3, SVG Export Plug-In . SVG Version: 6.00 Build 0)  -->
<svg version="1.1" id="Camada_1" xmlns="http://www.w3.org/2000/svg" xmlns:xlink="http://www.w3.org/1999/xlink" x="0px" y="0px"
	 viewBox="0 0 500 500" style="enable-background:new 0 0 500 500;" xml:space="preserve">
<style type="text/css">
	.st0{fill:#312D30;}
</style>
<g>
	<path class="st0" d="M275.29,221.15v-0.56c-0.11,0.19-0.27,0.38-0.38,0.56H275.29z"/>
	<path class="st0" d="M250,0C112.15,0,0,112.15,0,250c0,137.85,112.15,250,250,250c137.85,0,250-112.15,250-250
		C500,112.15,387.85,0,250,0z M187.48,362.38c0,2.31-1.87,4.18-4.18,4.18h-48.17c-2.31,0-4.18-1.87-4.18-4.18V200.67
		c0-2.31,1.87-4.18,4.18-4.18h48.17c2.31,0,4.18,1.87,4.18,4.18V362.38z M157.52,174.87c-16.72,0-30.27-13.55-30.27-30.27
		s13.55-30.27,30.27-30.27c16.71,0,30.27,13.55,30.27,30.27S174.24,174.87,157.52,174.87z M391.34,362.38
		c0,2.31-1.87,4.18-4.18,4.18h-48.19c-2.31,0-4.18-1.87-4.18-4.18v-86.81c0-22.85-8.16-38.45-28.64-38.45
		c-15.62,0-24.9,10.5-29,20.67c-1.49,3.64-1.87,8.68-1.87,13.78v90.8c0,2.31-1.87,4.18-4.18,4.18h-48.17
		c-2.31,0-4.19-1.86-4.18-4.18c0.11-23.12,0.59-135.29,0.1-161.65c-0.04-2.33,1.84-4.23,4.18-4.23h48.08c2.31,0,4.18,1.87,4.18,4.18
		v19.92c7.51-11.56,20.91-28.09,50.96-28.09c37.2,0,65.09,24.31,65.09,76.53V362.38z"/>
</g>
</svg>
