<?xml version="1.0" encoding="utf-8"?>
<!-- Generator: Adobe Illustrator 23.0.3, SVG Export Plug-In . SVG Version: 6.00 Build 0)  -->
<svg version="1.1" id="Camada_1" xmlns="http://www.w3.org/2000/svg" xmlns:xlink="http://www.w3.org/1999/xlink" x="0px" y="0px"
	 viewBox="0 0 500 500" style="enable-background:new 0 0 500 500;" xml:space="preserve">
<style type="text/css">
	.st0{fill:#312D30;}
</style>
<g>
	<path class="st0" d="M250,0C112.15,0,0,112.15,0,250c0,137.85,112.15,250,250,250c137.85,0,250-112.15,250-250
		C500,112.15,387.85,0,250,0z M261.8,389.14c-24.82,0-49.28-6.14-71.09-17.8l-63.18,17.33c-1.15,0.32-2.32,0.47-3.49,0.47
		c-3.8,0-7.49-1.65-10.03-4.63c-3.32-3.89-4.09-9.35-1.97-14L134.97,320c-15.8-24.41-24.11-52.53-24.11-81.8
		c0-83.23,67.71-150.94,150.94-150.94c83.23,0,150.94,67.71,150.94,150.94C412.74,321.43,345.03,389.14,261.8,389.14z"/>
	<path class="st0" d="M261.8,113.63c-68.69,0-124.58,55.88-124.58,124.58c0,26.3,8.13,51.47,23.5,72.78
		c2.77,3.83,3.27,8.85,1.31,13.16l-14.37,31.67l41.27-11.32c1.15-0.31,2.32-0.47,3.49-0.47c2.31,0,4.61,0.61,6.65,1.8
		c18.99,11.1,40.68,16.96,62.73,16.96c68.69,0,124.58-55.88,124.58-124.58C386.37,169.51,330.49,113.63,261.8,113.63z
		 M335.85,286.48c-4.63,11.25-16.14,18.48-27.82,20.69c-11.15,2.12-20.35-1.43-30.68-4.85c-9.21-3.04-18.1-7.48-26.36-12.53
		c-16.52-10.12-30.79-23.66-42.26-39.24c-3.51-4.76-6.76-9.72-9.75-14.82c-3.97-6.77-7.49-13.89-9.33-21.51
		c-0.77-3.17-1.17-6.45-1.21-9.73c-0.13-11.56,4.28-23.22,13.42-30.66c5.3-4.31,13.12-6.19,19.07-2.83
		c6.46,3.65,9.81,12.86,12.81,19.31c2.34,5.05,5,11.68,4.04,17.35c-0.97,5.67-5.45,10.45-9.03,14.66c-2.42,2.84-2.78,5.26-0.77,8.33
		c11.83,19.72,28.27,34.04,49.71,42.58c2.92,1.17,5.18,0.81,7.09-1.54c3.7-4.57,7.35-13.51,13.06-15.85
		c7.45-3.05,15.67,1.18,21.99,4.96c5.88,3.52,15.73,7.84,17.32,15.12C337.91,279.44,337.23,283.15,335.85,286.48z"/>
</g>
</svg>
