<?xml version="1.0" encoding="utf-8"?>
<!-- Generator: Adobe Illustrator 23.0.3, SVG Export Plug-In . SVG Version: 6.00 Build 0)  -->
<svg version="1.1" id="Camada_1" xmlns="http://www.w3.org/2000/svg" xmlns:xlink="http://www.w3.org/1999/xlink" x="0px" y="0px"
	 viewBox="0 0 500 500" style="enable-background:new 0 0 500 500;" xml:space="preserve">
<style type="text/css">
	.st0{fill:#312D30;}
</style>
<path class="st0" d="M250,0C112.15,0,0,112.15,0,250c0,137.85,112.15,250,250,250c137.85,0,250-112.15,250-250
	C500,112.15,387.85,0,250,0z M319.35,148.29c0,2.08-1.69,3.77-3.77,3.77h-30.06c-7.38,0-13.36,5.98-13.36,13.36v31.48h42.76
	c2.21,0,3.95,1.89,3.76,4.09l-3.75,44.37c-0.17,1.95-1.8,3.46-3.76,3.46h-39.01v147.26c0,2.08-1.69,3.77-3.77,3.77h-53.81
	c-2.08,0-3.77-1.69-3.77-3.77v-144.9v-2.36h-26.9c-2.08,0-3.77-1.69-3.77-3.77v-44.37c0-2.08,1.69-3.77,3.77-3.77h26.9v-42.77
	c0-29.81,24.17-53.98,53.98-53.98h50.8c2.08,0,3.77,1.69,3.77,3.77V148.29z"/>
</svg>
