<?xml version="1.0" encoding="utf-8"?>
<!-- Generator: Adobe Illustrator 23.0.3, SVG Export Plug-In . SVG Version: 6.00 Build 0)  -->
<svg version="1.1" id="Camada_1" xmlns="http://www.w3.org/2000/svg" xmlns:xlink="http://www.w3.org/1999/xlink" x="0px" y="0px"
	 viewBox="0 0 500 500" style="enable-background:new 0 0 500 500;" xml:space="preserve">
<style type="text/css">
	.st0{fill:#312D30;}
</style>
<g>
	<g>
		<path class="st0" d="M250,500C112.15,500,0,387.85,0,250C0,112.15,112.15,0,250,0s250,112.15,250,250
			C500,387.85,387.85,500,250,500z M334.3,148.57c-10.22,0-18.5,8.28-18.5,18.5c0,10.22,8.28,18.5,18.5,18.5s18.5-8.28,18.5-18.5
			C352.8,156.85,344.51,148.57,334.3,148.57z M252.05,172.29c-42.85,0-77.71,34.86-77.71,77.71s34.86,77.71,77.71,77.71
			c42.85,0,77.71-34.86,77.71-77.71S294.9,172.29,252.05,172.29z M252.05,299.78c-27.45,0-49.78-22.33-49.78-49.78
			s22.33-49.78,49.78-49.78c27.45,0,49.78,22.33,49.78,49.78S279.5,299.78,252.05,299.78z M408.85,185.42
			c0-52.35-42.44-94.78-94.79-94.78h-125.1c-52.35,0-94.79,42.43-94.79,94.78v125.11c0,52.35,42.44,94.78,94.79,94.78h125.1
			c52.35,0,94.79-42.43,94.79-94.78V185.42z M379.17,310.53c0,35.95-29.15,65.1-65.1,65.1h-125.1c-35.95,0-65.1-29.14-65.1-65.1
			V185.42c0-35.95,29.15-65.1,65.1-65.1h125.1c35.95,0,65.1,29.14,65.1,65.1V310.53z"/>
	</g>
</g>
</svg>
