<svg id="Layer_1" data-name="Layer 1" xmlns="http://www.w3.org/2000/svg" viewBox="0 0 50 50"><defs><style>.cls-1{fill:none;stroke:#000;stroke-linecap:round;stroke-linejoin:round;stroke-width:2px;}</style></defs><title>black</title><path class="cls-1" d="M30,23V37h8a2,2,0,0,0,2-2V12a2,2,0,0,0-2-2H32a2,2,0,0,0-2,2v7"/><polyline class="cls-1" points="20 28 20 37 30 37 30 20"/><path class="cls-1" d="M30,19H22a2,2,0,0,0-2,2v3"/><path class="cls-1" d="M10,30a2,2,0,0,1,2-2h8v9H12a2,2,0,0,1-2-2V30"/><line class="cls-1" x1="20" y1="10" x2="10" y2="19"/><line class="cls-1" x1="16" y1="10" x2="20" y2="10"/><line class="cls-1" x1="20" y1="14" x2="20" y2="10"/><line class="cls-1" x1="30.17" y1="24.69" x2="40" y2="34.5"/><line class="cls-1" x1="30.17" y1="31.19" x2="35.5" y2="36.5"/><line class="cls-1" x1="30.17" y1="18.19" x2="40" y2="28"/><line class="cls-1" x1="30" y1="12" x2="40" y2="21.5"/><line class="cls-1" x1="34" y1="10" x2="40" y2="16"/></svg>