<svg id="Layer_1" data-name="Layer 1" xmlns="http://www.w3.org/2000/svg" viewBox="0 0 50 50"><defs><style>.cls-1{fill:none;stroke:#000;stroke-linecap:round;stroke-linejoin:round;stroke-width:2px;}</style></defs><title>black</title><path class="cls-1" d="M42,32v7a1.87,1.87,0,0,1-2,2H10a1.82,1.82,0,0,1-2-2V32"/><line class="cls-1" x1="16" y1="32" x2="8" y2="32"/><line class="cls-1" x1="30" y1="32" x2="20" y2="32"/><line class="cls-1" x1="42" y1="32" x2="34" y2="32"/><path class="cls-1" d="M8,28V20a1.82,1.82,0,0,1,2-2H40a1.85,1.85,0,0,1,2,2v8"/><line class="cls-1" x1="13" y1="18" x2="13" y2="37"/><line class="cls-1" x1="37" y1="18" x2="37" y2="37"/><path class="cls-1" d="M17,14a1.91,1.91,0,0,1,2-2H31a1.91,1.91,0,0,1,2,2"/><circle cx="25" cy="24.5" r="1.5"/></svg>