<svg id="Layer_1" data-name="Layer 1" xmlns="http://www.w3.org/2000/svg" viewBox="0 0 50 50"><defs><style>.cls-1,.cls-2{fill:none;stroke:#000;stroke-linecap:round;stroke-linejoin:round;}.cls-1{stroke-width:2px;}.cls-2{stroke-width:2px;}</style></defs><title>black</title><path class="cls-1" d="M14.17,14.61A10.3,10.3,0,0,0,11.68,8c3.23-.15,9,0.51,11.57,2"/><polyline class="cls-2" points="21 38.01 21 40.01 16 40.01 16 36.47"/><path class="cls-1" d="M21,38h7v2h5V37c0.25-.14.69-0.37,0.83-0.47A14.75,14.75,0,0,0,25,10c-0.46,0-1.2.06-1.69,0.1"/><path class="cls-1" d="M16,36.44a14.79,14.79,0,0,1-5.4-8.26L10.54,28H8a1,1,0,0,1-1-1V21a1,1,0,0,1,1-1h3a14.69,14.69,0,0,1,6.13-7.78"/><line class="cls-2" x1="42" y1="25.01" x2="42" y2="22.01"/><path class="cls-1" d="M26.75,14.07A10.83,10.83,0,0,1,35.66,23"/><circle cx="18" cy="19.51" r="1.5"/></svg>