<svg id="Layer_1" data-name="Layer 1" xmlns="http://www.w3.org/2000/svg" viewBox="0 0 50 50"><defs><style>.cls-1,.cls-2{fill:none;stroke:#000;stroke-linecap:round;stroke-linejoin:round;}.cls-1{stroke-width:1.83px;}.cls-2{stroke-width:2px;}</style></defs><title>black</title><path class="cls-1" d="M33.49,19.67a8,8,0,1,1-15,0"/><path class="cls-2" d="M41,26a17.58,17.58,0,0,0-7-6.57A17.5,17.5,0,0,0,11,26"/><path class="cls-2" d="M11,26a17.5,17.5,0,0,0,30,0"/><path class="cls-2" d="M21,41H13a2,2,0,0,1-2-2V34"/><path class="cls-2" d="M41,34v5a2,2,0,0,1-2,2H31"/><path class="cls-2" d="M31,11h8a2,2,0,0,1,2,2v5"/><path class="cls-2" d="M11,18V13a2,2,0,0,1,2-2h8"/><circle cx="21.02" cy="22.5" r="1.5"/></svg>