<svg id="Layer_1" data-name="Layer 1" xmlns="http://www.w3.org/2000/svg" viewBox="0 0 50 50"><defs><style>.cls-1{fill:none;stroke:#000;stroke-linecap:round;stroke-linejoin:round;stroke-width:2px;}</style></defs><title>black</title><line class="cls-1" x1="24.06" y1="25.41" x2="14.55" y2="35.41"/><line class="cls-1" x1="18.5" y1="32" x2="26.59" y2="40"/><line class="cls-1" x1="22.5" y1="29" x2="31.63" y2="38.49"/><line class="cls-1" x1="25.37" y1="25.73" x2="35.16" y2="35.48"/><line class="cls-1" x1="32.64" y1="26.14" x2="38.69" y2="32.47"/><path class="cls-1" d="M12.07,32.27a15.42,15.42,0,0,1-2-5.82"/><path class="cls-1" d="M14.83,35.73A15.62,15.62,0,0,0,41,26.44V26.07"/><path class="cls-1" d="M41,22a13.41,13.41,0,0,0-.63-2.58A15.65,15.65,0,0,0,28,9h0V22H41"/><path class="cls-1" d="M10.08,22.43A15.6,15.6,0,0,1,23.56,9H24V24c0,1.11,1.39,2,2.5,2H41"/></svg>