<?xml version="1.0" encoding="utf-8"?>
<!-- Generator: Adobe Illustrator 23.0.3, SVG Export Plug-In . SVG Version: 6.00 Build 0)  -->
<svg version="1.1" id="Camada_1" xmlns="http://www.w3.org/2000/svg" xmlns:xlink="http://www.w3.org/1999/xlink" x="0px" y="0px"
	 viewBox="0 0 500 500" style="enable-background:new 0 0 500 500;" xml:space="preserve">
<style type="text/css">
	.st0{fill:url(#SVGID_1_);}
	.st1{fill:none;stroke:#FFFFFF;stroke-width:15;stroke-linecap:round;stroke-linejoin:round;}
</style>
<g>
	<linearGradient id="SVGID_1_" gradientUnits="userSpaceOnUse" x1="250" y1="500" x2="250" y2="-9.094947e-13">
		<stop  offset="0" style="stop-color:#2FAB59"/>
		<stop  offset="1" style="stop-color:#49B16B"/>
	</linearGradient>
	<circle class="st0" cx="250" cy="250" r="250"/>
</g>
<g>
	<path class="st1" d="M295,245.5v126h72c9.94,0,18-8.06,18-18v-207c0-9.94-8.06-18-18-18h-54c-9.94,0-18,8.06-18,18v63"/>
	<polyline class="st1" points="205,290.5 205,371.5 295,371.5 295,218.5 	"/>
	<path class="st1" d="M295,209.5h-72c-9.94,0-18,8.06-18,18v27"/>
	<path class="st1" d="M115,308.5c0-9.94,8.06-18,18-18h72v81h-72c-9.94,0-18-8.06-18-18V308.5"/>
	<line class="st1" x1="205" y1="128.5" x2="115" y2="209.5"/>
	<line class="st1" x1="169" y1="128.5" x2="205" y2="128.5"/>
	<line class="st1" x1="205" y1="164.5" x2="205" y2="128.5"/>
	<line class="st1" x1="296.53" y1="260.71" x2="385" y2="349"/>
	<line class="st1" x1="296.53" y1="319.21" x2="344.5" y2="367"/>
	<line class="st1" x1="296.53" y1="202.21" x2="385" y2="290.5"/>
	<line class="st1" x1="295" y1="146.5" x2="385" y2="232"/>
	<line class="st1" x1="331" y1="128.5" x2="385" y2="182.5"/>
</g>
</svg>
